<svg width="80" height="80" viewBox="0 0 80 80" fill="none" xmlns="http://www.w3.org/2000/svg">
<path d="M61.0319 25.6774H58.6472C56.6752 25.6774 55.0703 27.2839 55.0703 29.258V29.4621C53.6825 29.955 52.6857 31.2823 52.6857 32.8386V34.2363C52.6857 35.1923 53.0577 36.0923 53.7337 36.769L55.0107 38.0473L53.7254 48.9838C50.2391 43.3502 44.6114 39.2778 38.1014 37.7823L37.5685 36.1806C39.308 35.6996 40.7352 34.469 41.4494 32.8386H41.955C44.5852 32.8386 46.7242 30.6974 46.7242 28.0645V22.0967C48.0393 22.0967 49.1088 21.0261 49.1088 19.7096V17.3225C49.1088 16.006 48.0393 14.9354 46.7242 14.9354H46.5167C45.3769 8.06058 39.5024 2.99994 32.4165 2.99994C25.3306 2.99994 19.4562 8.06058 18.3163 14.9354H18.1088C16.7937 14.9354 15.7242 16.006 15.7242 17.3225V19.7096C15.7242 21.0261 16.7937 22.0967 18.1088 22.0967V28.0645C18.1088 30.6974 20.2478 32.8386 22.8781 32.8386H23.3836C24.099 34.469 25.5262 35.7008 27.2646 36.1806L26.7304 37.7835C24.0346 38.4018 21.4652 39.5452 19.1938 41.1135L16.845 33.8126C16.8378 33.7732 16.839 33.7338 16.8307 33.6944C16.2322 31.1796 12.6779 29.8643 8.71944 30.7046C6.2621 31.2262 4.20895 32.4663 3.22649 34.0191C2.66491 34.9071 2.4813 35.8524 2.69591 36.7547C2.81872 37.2727 3.07268 37.737 3.42441 38.144L11.5941 50.3934C10.3958 53.1505 9.76271 56.0687 9.76271 59.0967C9.76271 64.186 12.6767 68.5986 16.9165 70.7768V72.2257C16.9165 74.8587 19.0555 76.9999 21.6858 76.9999H25.2627H28.8396H47.9165V61.3728C49.6525 63.6752 52.3495 65.0645 55.31 65.0645C60.4369 65.0645 64.6088 60.8882 64.6088 55.7572V29.258C64.6088 27.2839 63.0039 25.6774 61.0319 25.6774ZM55.0703 32.8386C55.0703 32.181 55.6045 31.6451 56.2626 31.6451H57.4549V29.258C57.4549 28.6004 57.9891 28.0645 58.6472 28.0645H61.0319C61.69 28.0645 62.2242 28.6004 62.2242 29.258V36.4193H56.7562L55.4197 35.0813C55.1943 34.8557 55.0703 34.555 55.0703 34.2363V32.8386ZM35.9934 72.2257V74.6128H32.9459C33.3561 73.9075 33.6088 73.0994 33.6088 72.2257H35.9934ZM37.1857 69.8387H30.0319V64.365L31.3685 63.0271C31.5914 62.8051 31.8979 62.6774 32.2114 62.6774H33.6088C34.267 62.6774 34.8011 63.2133 34.8011 63.8709V65.0645H37.1857C37.8439 65.0645 38.378 65.6004 38.378 66.258V68.6451C38.378 69.3027 37.8439 69.8387 37.1857 69.8387ZM35.1338 36.4193L35.8492 38.5677L32.4165 42.8633L28.9827 38.5665L29.6981 36.4181H35.1338V36.4193ZM28.9946 42.4026C28.9421 42.4014 28.8921 42.387 28.8396 42.387H21.6858C21.6738 42.387 21.6631 42.3906 21.6512 42.3906C23.3705 41.3666 25.24 40.6015 27.1918 40.1467L28.9946 42.4026ZM21.6858 44.7741H24.7106C24.3029 45.4771 24.0704 46.2923 24.0704 47.1612V48.3548H26.455V47.1612C26.455 45.8447 27.5245 44.7741 28.8396 44.7741C30.1547 44.7741 31.2242 45.8447 31.2242 47.1612C31.2242 48.4777 30.1547 49.5483 28.8396 49.5483H21.6858C20.3706 49.5483 19.3012 48.4777 19.3012 47.1612C19.3012 45.8447 20.3706 44.7741 21.6858 44.7741ZM19.3012 51.2718C20.0058 51.6824 20.813 51.9354 21.6858 51.9354H28.8396C29.7124 51.9354 30.5196 51.6824 31.2242 51.2718V60.4454C30.6495 60.6113 30.1166 60.9037 29.6826 61.3394L28.346 62.6774H24.0704C22.4011 62.6774 20.7689 62.2787 19.3012 61.5495V51.2718ZM35.9934 61.2153C35.3591 60.6448 34.5269 60.2903 33.6088 60.2903V47.1612C33.6088 46.5979 33.4932 46.0644 33.3131 45.5619L35.9934 42.2092V61.2153ZM41.955 30.4516V25.6774C43.2701 25.6774 44.3396 26.748 44.3396 28.0645C44.3396 29.3809 43.2701 30.4516 41.955 30.4516ZM44.3396 23.9539C43.6349 23.5433 42.8277 23.2903 41.955 23.2903V22.0967H44.3396V23.9539ZM44.0963 14.9354H35.9934V5.93368C40.089 7.20362 43.2307 10.6052 44.0963 14.9354ZM33.6088 5.44671V14.9354H31.2242V5.44671C31.6165 5.40852 32.0135 5.38704 32.4165 5.38704C32.8195 5.38704 33.2166 5.40852 33.6088 5.44671ZM28.8396 5.93368V14.9354H20.7367C21.6023 10.6052 24.744 7.20362 28.8396 5.93368ZM18.1077 17.3225H46.7242V19.7096H18.1088L18.1077 17.3225ZM22.8781 22.0967V23.2903C22.0053 23.2903 21.1981 23.5433 20.4935 23.9539V22.0967H22.8781ZM20.4935 28.0645C20.4935 26.748 21.563 25.6774 22.8781 25.6774V30.4516C21.563 30.4516 20.4935 29.3809 20.4935 28.0645ZM25.2627 30.4516V22.0967H39.5703V30.4516C39.5703 32.4257 37.9655 34.0322 35.9934 34.0322H28.8396C26.8675 34.0322 25.2627 32.4257 25.2627 30.4516ZM5.24029 35.2974C5.86744 34.3067 7.42698 33.4211 9.21544 33.0404C9.89625 32.8959 10.5329 32.8327 11.1124 32.8327C12.7995 32.8327 14.0014 33.3674 14.3924 33.9785L14.5093 34.3413C14.5379 34.586 14.4747 34.8557 14.2851 35.1553C13.658 36.146 12.0984 37.0316 10.31 37.4123C7.84906 37.9339 5.99025 37.3908 5.29991 36.6616L5.06621 36.3107C5.05191 36.2749 5.02329 36.2415 5.01375 36.2057C4.95175 35.9383 5.02806 35.6339 5.24029 35.2974ZM8.45713 39.9987C9.20828 39.9987 9.99878 39.9176 10.806 39.7457C12.722 39.3387 14.3853 38.4925 15.4941 37.404L17.7631 44.4567C17.2313 45.2265 16.9165 46.1563 16.9165 47.1612V54.0766L7.49256 39.9474C7.80613 39.9785 8.12686 39.9987 8.45713 39.9987ZM12.1473 59.0967C12.1473 56.9256 12.499 54.8131 13.1918 52.7924L16.9165 58.377V59.9179C16.3967 59.4524 15.9102 58.9463 15.4858 58.3806L13.5781 59.8128C16.0414 63.1011 19.9641 65.0645 24.0704 65.0645H27.6473V69.8387H22.8781C16.9607 69.8387 12.1473 65.0191 12.1473 59.0967ZM25.2627 74.6128H21.6858C20.3706 74.6128 19.3012 73.5422 19.3012 72.2257V71.7173C20.4398 72.0407 21.6369 72.2257 22.8781 72.2257H31.2242C31.2242 73.5422 30.1547 74.6128 28.8396 74.6128H25.2627ZM55.31 62.6774C52.675 62.6774 50.3059 61.2117 49.1267 58.852L47.9165 56.4279V51.9354H45.5319V74.6128H38.378V72.0061C39.7623 71.512 40.7627 70.1991 40.7627 68.6451V66.258C40.7627 64.704 39.7623 63.3911 38.378 62.897V40.315C44.8439 42.0576 50.2653 46.6265 53.0553 52.7697L53.2354 53.1648L52.6953 57.7647L55.0632 58.0428L57.3226 38.8064H62.2242V55.7572C62.2242 59.5729 59.1218 62.6774 55.31 62.6774Z" fill="#EE1F23"/>
</svg>
