<svg width="80" height="80" viewBox="0 0 80 80" fill="none" xmlns="http://www.w3.org/2000/svg">
<path d="M75.8979 48.6397C75.4319 48.4545 74.8998 48.5703 74.5535 48.9328L69.3335 54.4197V21.8289H69.3396L74.3202 16.4511C74.7784 15.956 74.7482 15.1822 74.2525 14.724C74.2525 14.724 74.2519 14.7234 74.2514 14.7229L72.4588 13.0545L74.9496 10.3656C75.4073 9.86986 75.3765 9.09665 74.8808 8.63899L69.503 3.65842C69.0078 3.2002 68.2346 3.22985 67.7764 3.72556L59.0864 13.1087H16.7779C16.7739 9.73503 14.0403 7.00136 10.6666 6.99745H9.44464C6.07092 7.00136 3.33726 9.73503 3.33334 13.1087V65.6643C3.33334 66.3391 3.88052 66.8863 4.55583 66.8863H23.0576L20.4906 69.9685C20.0593 70.4877 20.1298 71.2581 20.6484 71.6895L26.2841 76.3819C26.8028 76.8138 27.5738 76.7433 28.0057 76.2247L28.0062 76.2241L34.2619 68.7085C34.6938 68.1882 34.9719 67.5565 35.0636 66.8863H57.4594L50.1139 74.5999C49.649 75.0889 49.6685 75.8627 50.1575 76.3276C50.3847 76.5436 50.6862 76.6645 51.0001 76.6639H75.4442C76.1195 76.6639 76.6667 76.1167 76.6667 75.442V49.7754C76.6667 49.2752 76.3623 48.8254 75.8979 48.6397ZM71.6962 15.6751L69.3335 18.2309V16.4332L70.7999 14.8443L71.6962 15.6751ZM66.889 15.4575V15.4748L56.5525 26.6461L52.9628 23.325L65.4148 9.86819L69.0045 13.1893L66.9036 15.4575H66.889ZM54.2049 27.802L51.3934 28.6223L51.9938 25.7549L54.2049 27.802ZM68.7359 6.28018L72.3239 9.59963L70.6634 11.3973L67.0748 8.07446L68.7359 6.28018ZM9.44464 9.44186H10.6666C12.6919 9.44186 14.3335 11.0834 14.3335 13.1087V59.5849C13.2816 58.7759 11.9931 58.335 10.6666 58.3306H9.44464C8.11753 58.335 6.82959 58.7759 5.77775 59.5849V13.1087C5.77775 11.0834 7.41929 9.44186 9.44464 9.44186ZM9.44464 60.775H10.6666C12.6919 60.775 14.3335 62.4171 14.3335 64.4419H5.77775C5.77775 62.4171 7.41929 60.775 9.44464 60.775ZM32.3842 67.1453L31.6021 68.0841L27.8451 64.9566L28.6262 64.0166C29.0581 63.498 29.8285 63.4275 30.3471 63.8594C30.3477 63.8594 30.3477 63.86 30.3483 63.86L32.2265 65.4198C32.7457 65.8512 32.8167 66.6216 32.3854 67.1408C32.3848 67.1414 32.3848 67.1414 32.3842 67.142V67.1453ZM26.9102 73.721L23.1527 70.5934L26.2808 66.8348L30.0378 69.9629L26.9102 73.721ZM34.55 64.4419C34.3469 64.1034 34.0901 63.8007 33.7897 63.545L31.9115 61.9818C30.355 60.686 28.0432 60.8969 26.7474 62.4534L25.0891 64.4419H16.7779V15.5532H56.825L50.3388 22.5624C50.2459 22.6671 50.1721 22.7879 50.1212 22.9183C50.1066 22.9535 50.0954 22.9865 50.0831 23.0234C50.0714 23.0598 50.0529 23.0967 50.044 23.1359L48.5848 30.1122C48.4472 30.7729 48.8713 31.4203 49.532 31.5579C49.7284 31.5987 49.9315 31.5909 50.1234 31.535L56.9682 29.5404C57.0001 29.5303 57.0269 29.5118 57.0572 29.5012C57.0879 29.49 57.1198 29.4744 57.1528 29.4581C57.2899 29.396 57.4141 29.3082 57.5193 29.2002L66.889 19.074V56.9861L59.788 64.4419H34.55ZM74.2223 74.2195H53.8513L74.2223 52.8308V74.2195Z" fill="#EE1F23"/>
<path d="M60.8708 71.0209C61.0599 71.4774 61.5059 71.7751 62.0004 71.7751H70.5556C71.2309 71.7751 71.7781 71.2279 71.7781 70.5531V61.9974C71.7781 61.3221 71.2303 60.7755 70.5556 60.7755C70.2316 60.7755 69.9206 60.9042 69.6917 61.1336L61.136 69.6887C60.7864 70.0384 60.6817 70.5643 60.8708 71.0209ZM69.3337 64.9476V69.3307H64.9506L69.3337 64.9476Z" fill="#EE1F23"/>
<path d="M57.1109 49.7754H48.5558V36.3309C48.5541 36.0064 48.4249 35.6953 48.196 35.4654L40.8628 28.1322C40.3856 27.6549 39.6118 27.6549 39.1346 28.1322L31.8013 35.4654C31.5736 35.6959 31.4455 36.007 31.4444 36.3309V49.7754H22.8892C22.2139 49.7754 21.6667 50.3226 21.6667 50.9974C21.6667 51.6727 22.2139 52.2198 22.8892 52.2198H57.1115C57.7862 52.2198 58.3334 51.6727 58.3334 50.9974C58.3334 50.3226 57.7862 49.7754 57.1109 49.7754ZM40.0001 30.7254L44.3831 35.1084H35.617L40.0001 30.7254ZM33.8888 37.5528H46.1114V49.7754H33.8888V37.5528Z" fill="#EE1F23"/>
<path d="M38.7775 22.8864H41.2225V25.3308H38.7775V22.8864Z" fill="#EE1F23"/>
<path d="M38.7775 54.6641H41.2225V57.1085H38.7775V54.6641Z" fill="#EE1F23"/>
</svg>
